# File created by Blade
# Date/Time:  Tue Jan 27 19:38:24 2015
#---------------------------------------------------------
:version 1.10
:name HOM
:units
  mass 1.0
  length 1.000000
  angle deg
:documentation
     Acclaim Skeleton File
:root
   axis xyz
   order TX TY TZ RX RY RZ
   position 0.000000 0.000000 0.000000
   orientation 0 0 0
:bonedata
   begin
      id 1
      name Spine_dum
      direction 0.000000 1.000000 0.000000
      length 6.116652
      axis 0.0 0.0 0.0 xyz
   end
   begin
      id 2
      name LeftUpLeg_dum
      direction 1.000000 0.000000 0.000000
      length 4.711765
      axis 0.0 0.0 0.0 xyz
   end
   begin
      id 3
      name RightUpLeg_dum
      direction -1.000000 0.000000 0.000000
      length 4.711765
      axis 0.0 0.0 0.0 xyz
   end
   begin
      id 4
      name Spine
      direction 0.000000 1.000000 0.000000
      length 0.000000
      axis 0.0 0.0 0.0 xyz
      dof rx ry rz
   end
   begin
      id 5
      name Spine_dum1
      direction 0.000000 1.000000 0.000000
      length 15.225563
      axis 0.0 0.0 0.0 xyz
   end
   begin
      id 6
      name Spine_dum2
      direction 0.000000 1.000000 0.000000
      length 8.977654
      axis 0.0 0.0 0.0 xyz
   end
   begin
      id 7
      name Spine_dum3
      direction 0.000000 1.000000 0.000000
      length 8.977654
      axis 0.0 0.0 0.0 xyz
   end
   begin
      id 8
      name Head
      direction 0.000000 1.000000 0.000000
      length 4.527550
      axis 0.0 0.0 0.0 xyz
      dof rx ry rz
   end
   begin
      id 9
      name LeftShoulder
      direction 1.000000 0.000000 0.000000
      length 7.110130
      axis 0.0 0.0 -90.0 xyz
      dof rx ry rz
   end
   begin
      id 10
      name LeftArm
      direction 1.000000 0.000000 0.000000
      length 10.398341
      axis 0.0 0.0 -90.0 xyz
      dof rx ry rz
   end
   begin
      id 11
      name LeftForeArm
      direction 1.000000 0.000000 0.000000
      length 8.888997
      axis 0.0 0.0 -90.0 xyz
      dof ry rz rx
   end
   begin
      id 12
      name LeftHand
      direction 0.000000 0.000000 0.000000
      length 0.000000
      axis 0.0 0.0 -90.0 xyz
      dof rx ry rz
   end
   begin
      id 13
      name LeftHand_dum1
      direction 0.000000 0.000000 0.000000
      length 0.000000
      axis 0.0 0.0 -90.0 xyz
   end
   begin
      id 14
      name LeftHand_dum2
      direction 1.000000 0.000000 0.000000
      length 3.937000
      axis 0.0 0.0 -90.0 xyz
   end
   begin
      id 15
      name LeftHandThumb1
      direction 0.000000 0.000000 1.000000
      length 3.937000
      axis 0.0 0.0 -90.0 xyz
      dof rx rz ry
   end
   begin
      id 16
      name RightShoulder
      direction -1.000000 0.000000 0.000000
      length 7.110130
      axis 0.0 0.0 90.0 xyz
      dof rx ry rz
   end
   begin
      id 17
      name RightArm
      direction -1.000000 0.000000 0.000000
      length 10.398341
      axis 0.0 0.0 90.0 xyz
      dof rx ry rz
   end
   begin
      id 18
      name RightForeArm
      direction -1.000000 0.000000 0.000000
      length 8.888997
      axis 0.0 0.0 90.0 xyz
      dof ry rz rx
   end
   begin
      id 19
      name RightHand
      direction 0.000000 0.000000 0.000000
      length 0.000000
      axis 0.0 0.0 90.0 xyz
      dof rx ry rz
   end
   begin
      id 20
      name RightHand_dum1
      direction 0.000000 0.000000 0.000000
      length 0.000000
      axis 0.0 0.0 90.0 xyz
   end
   begin
      id 21
      name RightHand_dum2
      direction -1.000000 0.000000 0.000000
      length 3.937000
      axis 0.0 0.0 90.0 xyz
   end
   begin
      id 22
      name RightHandThumb1
      direction 0.000000 0.000000 1.000000
      length 3.937000
      axis 0.0 0.0 90.0 xyz
      dof rx rz ry
   end
   begin
      id 23
      name LeftUpLeg
      direction 0.000000 -1.000000 0.000000
      length 15.510451
      axis 0.0 0.0 0.0 xyz
      dof rx ry rz
   end
   begin
      id 24
      name LeftLeg
      direction 0.000000 -1.000000 0.000000
      length 14.858061
      axis 0.0 0.0 0.0 xyz
      dof rx ry rz
   end
   begin
      id 25
      name LeftFoot
      direction 0.000000 -0.258819 0.965926
      length 5.128852
      axis 15.0 0.0 0.0 xyz
      dof rx ry rz
   end
   begin
      id 26
      name LeftToeBase
      direction 0.000000 0.000000 1.000000
      length 2.952750
      axis 0.0 0.0 0.0 xyz
      dof rx ry rz
   end
   begin
      id 27
      name RightUpLeg
      direction 0.000000 -1.000000 0.000000
      length 15.510451
      axis 0.0 0.0 0.0 xyz
      dof rx ry rz
   end
   begin
      id 28
      name RightLeg
      direction 0.000000 -1.000000 0.000000
      length 14.858061
      axis 0.0 0.0 0.0 xyz
      dof rx ry rz
   end
   begin
      id 29
      name RightFoot
      direction 0.000000 -0.258819 0.965926
      length 5.128852
      axis 15.0 0.0 0.0 xyz
      dof rx ry rz
   end
   begin
      id 30
      name RightToeBase
      direction 0.000000 0.000000 1.000000
      length 2.952750
      axis 0.0 0.0 0.0 xyz
      dof rx ry rz
   end
:hierarchy
   begin
      root Spine_dum LeftUpLeg_dum RightUpLeg_dum
      Spine_dum Spine
      LeftUpLeg_dum LeftUpLeg
      RightUpLeg_dum RightUpLeg
      Spine Spine_dum1 Spine_dum2 Spine_dum3
      Spine_dum1 Head
      Spine_dum2 LeftShoulder
      Spine_dum3 RightShoulder
      LeftShoulder LeftArm
      LeftArm LeftForeArm
      LeftForeArm LeftHand
      LeftHand LeftHand_dum1 LeftHand_dum2
      LeftHand_dum1 LeftHandThumb1
      RightShoulder RightArm
      RightArm RightForeArm
      RightForeArm RightHand
      RightHand RightHand_dum1 RightHand_dum2
      RightHand_dum1 RightHandThumb1
      LeftUpLeg LeftLeg
      LeftLeg LeftFoot
      LeftFoot LeftToeBase
      RightUpLeg RightLeg
      RightLeg RightFoot
      RightFoot RightToeBase
   end

# File created by Blade
# Date/Time:  Tue Jan 27 19:38:14 2015
# Frame Rate: 120.000 fps
#------------------------------------------------------
:FULLY-SPECIFIED
:DEGREES
1443
root 4.653961 32.292457 2.079942 -5.963897 -2.821305 0.216350
Spine 2.982137 12.951349 0.649439
Head 11.882228 -13.663180 1.702188
LeftShoulder -6.683318 -4.057184 26.711634
LeftArm -1.776834 38.283034 -101.522715
LeftForeArm 4.276342 -0.000000 12.402731
LeftHand 10.652804 -0.000000 -5.136480
LeftHandThumb1 -26.253704 0.000000 33.147579
RightShoulder -7.087036 -0.789004 -24.464903
RightArm 23.419598 6.034509 109.399323
RightForeArm -5.875548 -0.000000 97.259302
RightHand 26.655789 -0.000000 -19.291921
RightHandThumb1 -24.326973 -0.000000 -32.862282
LeftUpLeg 9.784708 -1.300707 -3.625542
LeftLeg 4.126210 -0.000000 -0.000000
LeftFoot -18.859073 14.452675 -22.065162
LeftToeBase 16.474538 -0.000000 -0.000000
RightUpLeg 7.932060 -5.282444 2.595563
RightLeg 4.792229 -0.000000 -0.000000
RightFoot -13.239862 -12.544975 13.088860
RightToeBase 8.725841 -0.000000 -0.000000
1444
root 4.653310 32.292575 2.075710 -5.967039 -2.828234 0.217213
Spine 2.984558 12.938345 0.627081
Head 11.920181 -13.656189 1.675885
LeftShoulder -6.692611 -4.082539 26.705000
LeftArm -1.855371 38.237950 -101.589313
LeftForeArm 4.605282 -0.000000 12.353698
LeftHand 10.608770 -0.000000 -3.518165
LeftHandThumb1 -26.253704 0.000000 33.147579
RightShoulder -7.062342 -0.843465 -24.471508
RightArm 23.309965 6.106966 109.390833
RightForeArm -4.990132 -0.000000 94.691884
RightHand 26.979788 -0.000000 -20.266619
RightHandThumb1 -24.326973 -0.000000 -32.862282
LeftUpLeg 9.779169 -1.285855 -3.620448
LeftLeg 4.124697 -0.000000 -0.000000
LeftFoot -18.927716 14.417114 -22.193374
LeftToeBase 16.679666 -0.000000 -0.000000
RightUpLeg 7.919069 -5.292026 2.596537
RightLeg 4.805144 -0.000000 -0.000000
RightFoot -13.245883 -12.544709 13.100466
RightToeBase 8.761078 -0.000000 -0.000000
1445
root 4.653555 32.293376 2.071858 -5.981296 -2.826651 0.219287
Spine 2.997440 12.820067 0.622348
Head 11.975683 -13.558613 1.599977
LeftShoulder -6.797803 -3.978204 26.668321
LeftArm -1.802840 38.210241 -101.545067
LeftForeArm 4.537454 -0.000000 12.296174
LeftHand 10.611125 -0.000000 -4.551450
LeftHandThumb1 -26.253704 0.000000 33.147579
RightShoulder -6.896348 -0.728388 -24.520360
RightArm 23.044710 6.275738 109.466209
RightForeArm -4.446873 -0.000000 92.153649
RightHand 27.525704 -0.000000 -21.280378
RightHandThumb1 -24.326973 -0.000000 -32.862282
LeftUpLeg 9.782773 -1.267485 -3.618792
LeftLeg 4.131111 -0.000000 -0.000000
LeftFoot -18.906940 14.405151 -22.192175
LeftToeBase 16.664534 -0.000000 -0.000000
RightUpLeg 7.923957 -5.303609 2.592352
RightLeg 4.808652 -0.000000 -0.000000
RightFoot -13.230325 -12.543838 13.077451
RightToeBase 8.757915 -0.000000 -0.000000
1446
root 4.652807 32.293321 2.068033 -5.993915 -2.837146 0.219922
Spine 3.029829 12.840133 0.608316
Head 11.958495 -13.576698 1.591078
LeftShoulder -6.828430 -3.970628 26.651711
LeftArm -1.776718 38.189720 -101.538534
LeftForeArm 4.601716 -0.000000 12.218616
LeftHand 10.579333 -0.000000 -4.528573
LeftHandThumb1 -26.253704 0.000000 33.147579
RightShoulder -6.869350 -0.708405 -24.547330
RightArm 22.811385 6.450122 109.572847
RightForeArm -4.293714 -0.000000 89.691724
RightHand 27.806539 -0.000000 -21.984569
RightHandThumb1 -24.326973 -0.000000 -32.862282
LeftUpLeg 9.788525 -1.230903 -3.611062
LeftLeg 4.129814 -0.000000 -0.000000
LeftFoot -18.885491 14.386299 -22.161108
LeftToeBase 16.702943 -0.000000 -0.000000
RightUpLeg 7.921629 -5.292249 2.593089
RightLeg 4.824488 -0.000000 -0.000000
RightFoot -13.226390 -12.540504 13.069346
RightToeBase 8.782520 -0.000000 -0.000000
1447
root 4.652182 32.293326 2.064371 -5.996690 -2.840146 0.221205
Spine 3.040037 12.849680 0.597236
Head 11.969098 -13.616575 1.563022
LeftShoulder -6.850641 -3.989748 26.615714
LeftArm -1.804966 38.189062 -101.548665
LeftForeArm 4.739659 0.000000 12.155567
LeftHand 10.519370 0.000000 -3.602721
LeftHandThumb1 -26.253704 0.000000 33.147579
RightShoulder -6.806455 -0.704517 -24.580620
RightArm 22.557911 6.667487 109.688644
RightForeArm -4.362151 -0.000000 87.303481
RightHand 27.785341 0.000000 -22.966728
RightHandThumb1 -24.326973 -0.000000 -32.862282
LeftUpLeg 9.783807 -1.213518 -3.609943
LeftLeg 4.134888 -0.000000 -0.000000
LeftFoot -18.800738 14.413169 -22.011347
LeftToeBase 16.486383 -0.000000 -0.000000
RightUpLeg 7.911620 -5.289906 2.595945
RightLeg 4.835478 -0.000000 -0.000000
RightFoot -13.230043 -12.547063 13.068338
RightToeBase 8.746815 -0.000000 -0.000000
1448
root 4.650331 32.293716 2.060805 -6.000661 -2.859628 0.227550
Spine 3.053254 12.896299 0.580328
Head 11.975762 -13.674432 1.529368
LeftShoulder -6.864373 -3.984866 26.580825
LeftArm -1.774736 38.138488 -101.507846
LeftForeArm 4.554479 -0.000000 12.071755
LeftHand 10.603831 -0.000000 -5.274944
LeftHandThumb1 -26.253704 0.000000 33.147579
RightShoulder -6.754271 -0.775671 -24.617456
RightArm 22.335813 6.961469 109.903099
RightForeArm -4.733231 -0.000000 84.972343
RightHand 27.703387 -0.000000 -23.408662
RightHandThumb1 -24.326973 -0.000000 -32.862282
LeftUpLeg 9.787957 -1.199289 -3.607629
LeftLeg 4.123602 -0.000000 -0.000000
LeftFoot -18.882831 14.356797 -22.203793
LeftToeBase 16.730623 -0.000000 -0.000000
RightUpLeg 7.899738 -5.267431 2.598334
RightLeg 4.846201 -0.000000 -0.000000
RightFoot -13.224136 -12.567186 13.052045
RightToeBase 8.759947 -0.000000 -0.000000
1449
root 4.649257 32.294067 2.057850 -6.000006 -2.858887 0.227665
Spine 3.063587 12.925416 0.574250
Head 11.973903 -13.733274 1.495138
LeftShoulder -6.883993 -4.018094 26.544279
LeftArm -1.796437 38.139858 -101.514785
LeftForeArm 4.560309 -0.000000 11.993050
LeftHand 10.560664 0.000000 -5.336664
LeftHandThumb1 -26.253704 0.000000 33.147579
RightShoulder -6.708738 -0.838053 -24.658602
RightArm 22.098766 7.295778 110.143883
RightForeArm -5.173317 0.000000 82.657489
RightHand 27.554477 0.000000 -23.660663
RightHandThumb1 -24.326973 -0.000000 -32.862282
LeftUpLeg 9.783318 -1.174600 -3.598097
LeftLeg 4.118117 -0.000000 -0.000000
LeftFoot -18.866684 14.325193 -22.215872
LeftToeBase 16.719006 -0.000000 -0.000000
RightUpLeg 7.893336 -5.245642 2.606140
RightLeg 4.846343 -0.000000 -0.000000
RightFoot -13.229775 -12.591172 13.048816
RightToeBase 8.792138 -0.000000 -0.000000
1450
root 4.649060 32.294293 2.054138 -5.992772 -2.849715 0.234988
Spine 3.069038 12.947103 0.565092
Head 11.974032 -13.761470 1.432527
LeftShoulder -6.896998 -4.010183 26.499173
LeftArm -1.776706 38.144349 -101.485444
LeftForeArm 4.595210 0.000000 11.946029
LeftHand 10.511344 0.000000 -5.296925
LeftHandThumb1 -26.253704 0.000000 33.147579
RightShoulder -6.655371 -0.912285 -24.707290
RightArm 21.865101 7.651538 110.366313
RightForeArm -5.401475 0.000000 80.343679
RightHand 27.331102 0.000000 -23.653098
RightHandThumb1 -24.326973 -0.000000 -32.862282
LeftUpLeg 9.764214 -1.174533 -3.604735
LeftLeg 4.124071 -0.000000 -0.000000
LeftFoot -18.860247 14.332874 -22.208475
LeftToeBase 16.732643 -0.000000 -0.000000
RightUpLeg 7.877960 -5.241439 2.600029
RightLeg 4.850444 -0.000000 -0.000000
RightFoot -13.235659 -12.593625 13.067421
RightToeBase 8.796630 -0.000000 -0.000000
1451
root 4.648087 32.295042 2.051275 -5.982304 -2.828670 0.237325
Spine 3.071820 12.971088 0.576504
Head 11.956004 -13.858631 1.349712
LeftShoulder -6.901279 -4.038056 26.432305
LeftArm -1.790635 38.162182 -101.461277
LeftForeArm 4.570331 -0.000000 11.885966
LeftHand 10.528920 -0.000000 -5.335600
LeftHandThumb1 -26.253704 0.000000 33.147579
RightShoulder -6.619011 -1.165472 -24.765355
RightArm 21.841758 8.089615 110.827991
RightForeArm -5.501485 -0.000000 77.965659
RightHand 27.213770 -0.000000 -23.374756
RightHandThumb1 -24.326973 -0.000000 -32.862282
LeftUpLeg 9.751019 -1.209860 -3.610561
LeftLeg 4.128991 -0.000000 -0.000000
LeftFoot -18.855927 14.332640 -22.196018
LeftToeBase 16.771840 -0.000000 -0.000000
RightUpLeg 7.866813 -5.240385 2.602780
RightLeg 4.845812 -0.000000 -0.000000
RightFoot -13.231034 -12.623104 13.041311
RightToeBase 8.839084 -0.000000 -0.000000
1452
root 4.646946 32.293948 2.047568 -5.955020 -2.803911 0.238913
Spine 3.045612 13.003688 0.534684
Head 11.988534 -13.873139 1.348043
LeftShoulder -6.903785 -4.050413 26.448427
LeftArm -1.795058 38.118630 -101.484352
LeftForeArm 4.600470 -0.000000 11.828770
LeftHand 10.536620 -0.000000 -5.232557
LeftHandThumb1 -26.253704 0.000000 33.147579
RightShoulder -6.609689 -1.141144 -24.781118
RightArm 21.495391 8.396451 110.906828
RightForeArm -4.850888 -0.000000 75.570654
RightHand 26.904208 -0.000000 -23.430220
RightHandThumb1 -24.326973 -0.000000 -32.862282
LeftUpLeg 9.714456 -1.188669 -3.597140
LeftLeg 4.107486 -0.000000 -0.000000
LeftFoot -18.826928 14.315796 -22.159802
LeftToeBase 16.783249 -0.000000 -0.000000
RightUpLeg 7.833769 -5.221112 2.613459
RightLeg 4.849440 -0.000000 -0.000000
RightFoot -13.250321 -12.663380 13.063915
RightToeBase 8.795190 -0.000000 -0.000000
1453
root 4.648574 32.294371 2.046399 -5.981137 -2.728302 0.240288
Spine 3.085905 12.987184 0.531656
Head 11.997269 -13.959174 1.311622
LeftShoulder -6.895291 -4.055954 26.423119
LeftArm -1.768578 38.060683 -101.477185
LeftForeArm 4.635834 -0.000000 11.749273
LeftHand 10.594001 -0.000000 -5.297096
LeftHandThumb1 -26.253704 0.000000 33.147579
RightShoulder -6.578555 -1.047213 -24.833989
RightArm 21.130891 8.842127 111.114589
RightForeArm -4.006519 0.000000 73.087581
RightHand 26.891963 -0.000000 -23.481858
RightHandThumb1 -24.326973 -0.000000 -32.862282
LeftUpLeg 9.725177 -1.248768 -3.612061
LeftLeg 4.127992 -0.000000 -0.000000
LeftFoot -18.824748 14.310445 -22.173290
LeftToeBase 16.731421 -0.000000 -0.000000
RightUpLeg 7.879248 -5.294383 2.600112
RightLeg 4.820310 -0.000000 -0.000000
RightFoot -13.237048 -12.672981 13.061991
RightToeBase 8.786612 -0.000000 -0.000000
1454
root 4.648539 32.293764 2.045278 -5.985594 -2.671858 0.238526
Spine 3.094213 12.983746 0.506806
Head 12.017377 -14.041954 1.330483
LeftShoulder -6.894951 -4.037729 26.430879
LeftArm -1.727039 37.996128 -101.475474
LeftForeArm 4.729734 -0.000000 11.680175
LeftHand 10.591665 -0.000000 -5.428493
LeftHandThumb1 -26.253704 0.000000 33.147579
RightShoulder -6.584362 -1.044876 -24.815975
RightArm 20.855832 9.037538 111.159429
RightForeArm -3.057281 -0.000000 70.558914
RightHand 26.830796 -0.000000 -24.380585
RightHandThumb1 -24.326973 -0.000000 -32.862282
LeftUpLeg 9.720784 -1.274849 -3.608025
LeftLeg 4.127503 -0.000000 -0.000000
LeftFoot -18.732001 14.315059 -21.985104
LeftToeBase 16.526201 -0.000000 -0.000000
RightUpLeg 7.894436 -5.339272 2.597639
RightLeg 4.807813 -0.000000 -0.000000
RightFoot -13.236496 -12.688476 13.056321
RightToeBase 8.729746 -0.000000 -0.000000
1455
root 4.647259 32.294063 2.044021 -5.974548 -2.615892 0.244445
Spine 3.089337 12.991976 0.479464
Head 12.032784 -14.105688 1.306158
LeftShoulder -6.891076 -4.014856 26.412481
LeftArm -1.693200 37.943615 -101.446367
LeftForeArm 4.788606 0.000000 11.652638
LeftHand 10.623108 -0.000000 -5.551387
LeftHandThumb1 -26.253704 0.000000 33.147579
RightShoulder -6.542844 -1.130837 -24.827214
RightArm 20.708468 9.426484 111.491761
RightForeArm -2.486341 -0.000000 67.997357
RightHand 27.038133 0.000000 -25.168103
RightHandThumb1 -24.326973 -0.000000 -32.862282
LeftUpLeg 9.707348 -1.300659 -3.611604
LeftLeg 4.120164 -0.000000 -0.000000
LeftFoot -18.810291 14.239700 -22.197031
LeftToeBase 16.805684 -0.000000 -0.000000
RightUpLeg 7.897993 -5.359044 2.597342
RightLeg 4.783889 -0.000000 -0.000000
RightFoot -13.244774 -12.723629 13.066259
RightToeBase 8.733027 -0.000000 -0.000000
